# xmcd
#
# Track frame offsets: 
#        150
#        20144
#        37804
#        55987
#        74907
#        92578
#        114181
#        129291
#        148449
#        165646
#        179779
#        197824
#        215219
#        244587
#
# Disc length: 3357 seconds
#
# Revision: 0
# Processed by: cddbd v1.5.2PL0 Copyright (c) Steve Scherf et al.
# Submitted via: ExactAudioCopyFreeDBPlugin 1.0
#
DISCID=d90d1b0e
DTITLE=Rascal Flatts - Still Feels Good
DYEAR=2007
DGENRE=Country
TTITLE0=Take Me There
TTITLE1=Here
TTITLE2=Bob That Head
TTITLE3=Help Me Remember
TTITLE4=Still Feels Good
TTITLE5=Winner At A Losing Game
TTITLE6=No Reins
TTITLE7=Every Day
TTITLE8=Secret Smile
TTITLE9=Better Now
TTITLE10=She Goes All The Way
TTITLE11=How Strong Are You Now
TTITLE12=It's Not Supposed To Go Like That
TTITLE13=[Untitled] [CD-Rom Track]
EXTD=
EXTT0=
EXTT1=
EXTT2=
EXTT3=
EXTT4=
EXTT5=
EXTT6=
EXTT7=
EXTT8=
EXTT9=
EXTT10=
EXTT11=
EXTT12=
EXTT13=
PLAYORDER=
